<svg xmlns="http://www.w3.org/2000/svg" viewBox="0 0 200 200" width="200" height="200">
  <defs>
    <radialGradient id="bg" cx="50%" cy="36%" r="78%">
      <stop offset="0%" stop-color="#E0C79B"/>
      <stop offset="100%" stop-color="#8A6238"/>
    </radialGradient>
  </defs>
  <rect width="200" height="200" fill="url(#bg)"/>
  <!-- 黄金の襟(ウセクカラー) -->
  <path d="M30 200 Q100 150 170 200 Z" fill="#1f2a3a"/>
  <path d="M58 168 Q100 200 142 168 Q100 188 58 168 Z" fill="#D9B24A"/>
  <path d="M66 176 Q100 204 134 176 Q100 192 66 176 Z" fill="#2C6E73"/>
  <!-- 首 -->
  <rect x="89" y="120" width="22" height="28" rx="9" fill="#D9A574"/>
  <!-- 顔 -->
  <ellipse cx="100" cy="96" rx="34" ry="40" fill="#E6B585"/>
  <!-- ネメス頭巾(青金の縞) -->
  <path d="M60 92 Q58 44 100 40 Q142 44 140 92 L140 118 124 118 Q128 84 122 74 Q112 64 100 64 Q88 64 78 74 Q72 84 76 118 L60 118 Z" fill="#1f3b6e"/>
  <g stroke="#D9B24A" stroke-width="3">
    <line x1="63" y1="100" x2="77" y2="100"/>
    <line x1="123" y1="100" x2="137" y2="100"/>
    <line x1="62" y1="110" x2="77" y2="110"/>
    <line x1="123" y1="110" x2="138" y2="110"/>
  </g>
  <!-- 前髪(ストレートバング) -->
  <path d="M70 78 L130 78 Q116 70 100 70 Q84 70 70 78 Z" fill="#23201f"/>
  <!-- コブラ(ウラエウス) -->
  <path d="M100 52 q-6 -8 0 -14 q6 6 0 14 Z" fill="#D9B24A"/>
  <!-- アイライン強調の目 -->
  <path d="M80 96 q6 -3 12 0" stroke="#23201f" stroke-width="3.5" fill="none" stroke-linecap="round"/>
  <path d="M108 96 q6 -3 12 0" stroke="#23201f" stroke-width="3.5" fill="none" stroke-linecap="round"/>
  <line x1="80" y1="96" x2="74" y2="94" stroke="#23201f" stroke-width="3" stroke-linecap="round"/>
  <line x1="120" y1="96" x2="126" y2="94" stroke="#23201f" stroke-width="3" stroke-linecap="round"/>
  <!-- 口 -->
  <ellipse cx="100" cy="116" rx="6" ry="3.4" fill="#A84657"/>
</svg>
